<svg xmlns="http://www.w3.org/2000/svg" viewBox="0 0 512 512" role="img" aria-label="Mayday">
  <defs>
    <linearGradient id="g" x1="0" y1="0" x2="1" y2="1">
      <stop offset="0" stop-color="#2563EB"/>
      <stop offset="1" stop-color="#1D4ED8"/>
    </linearGradient>
  </defs>
  <rect width="512" height="512" rx="112" fill="url(#g)"/>
  <path fill="#fff" d="M256 140c-34 0-62 28-62 62 0 17 7 33 19 44l43 40 43-40c12-11 19-27 19-44 0-34-28-62-62-62zm0 88c-14 0-26-12-26-26s12-26 26-26 26 12 26 26-12 26-26 26z"/>
  <path fill="#fff" opacity="0.92" d="M146 322c0-14 12-26 26-26h168c14 0 26 12 26 26s-12 26-26 26H172c-14 0-26-12-26-26z"/>
</svg>
